<svg class="svg-icon" style="width: 1em; height: 1em;vertical-align: middle;fill: currentColor;overflow: hidden;" viewBox="0 0 1024 1024" version="1.1" xmlns="http://www.w3.org/2000/svg"><path d="M511.839 64.174c-247.423 0-448 200.576-448 448s200.576 448 448 448 448.001-200.576 448.001-448-200.577-448-448.001-448z m0 832c-212.077 0-383.999-171.923-383.999-384s171.922-384 383.999-384c212.077 0 384.001 171.923 384.001 384s-171.924 384-384.001 384z"  /><path d="M805.318 690.894c-27.343-52.979-68.589-97.651-119.276-129.186a328.094 328.094 0 0 0-54.854-27.371c44.691-35.152 73.394-89.718 73.394-150.989 0-106.034-85.957-191.991-191.99-191.991-106.034 0-191.991 85.957-191.991 191.991 0 61.094 28.54 115.518 73.009 150.68a327.993 327.993 0 0 0-55.241 27.426c-50.586 31.367-91.819 75.829-119.24 128.578-8.124 15.627-2.041 34.88 13.586 43.004 15.625 8.122 34.879 2.041 43.004-13.586C321.751 630.898 412.29 575.89 512 575.89c100.043 0 190.719 55.275 236.643 144.256 5.663 10.974 16.812 17.271 28.364 17.271a31.76 31.76 0 0 0 14.6-3.559c15.65-8.078 21.789-27.313 13.711-42.964z m-292.726-435.04c70.412 0 127.493 57.081 127.493 127.494s-57.081 127.494-127.493 127.494c-70.413 0-127.494-57.081-127.494-127.494s57.081-127.494 127.494-127.494z"  /></svg>