<svg class="svg-icon" style="width: 1em; height: 1em;vertical-align: middle;fill: currentColor;overflow: hidden;" viewBox="0 0 1024 1024" version="1.1" xmlns="http://www.w3.org/2000/svg"><path d="M200.64 184.736H128a24 24 0 0 1 0-48h92.416a24 24 0 0 1 23.552 19.424l19.712 101.696h607.264a56 56 0 0 1 53.92 71.168l-74.176 263.488a120 120 0 0 1-115.52 87.488H395.584a120 120 0 0 1-117.792-97.152L200.64 184.736zM272.96 305.856l51.936 267.84a72 72 0 0 0 70.656 58.304h339.584a72 72 0 0 0 69.312-52.48l74.176-263.52a8 8 0 0 0-7.68-10.144H272.96zM720 872a88 88 0 1 1 0-176 88 88 0 0 1 0 176z m0-48a40 40 0 1 0 0-80 40 40 0 0 0 0 80z m-320 48a88 88 0 1 1 0-176 88 88 0 0 1 0 176z m0-48a40 40 0 1 0 0-80 40 40 0 0 0 0 80z m-24-392a24 24 0 1 1 0-48 24 24 0 0 1 0 48z m38.944 96a24 24 0 1 1 0-48 24 24 0 0 1 0 48z m57.056-96a24 24 0 1 1 0-48 24 24 0 0 1 0 48z m43.488 96a24 24 0 1 1 0-48 24 24 0 0 1 0 48z m52.512-96a24 24 0 1 1 0-48 24 24 0 0 1 0 48z m48 96a24 24 0 1 1 0-48 24 24 0 0 1 0 48z m48-96a24 24 0 1 1 0-48 24 24 0 0 1 0 48z m48 96a24 24 0 1 1 0-48 24 24 0 0 1 0 48z m48-96a24 24 0 1 1 0-48 24 24 0 0 1 0 48z" fill="#2A2A2A" /></svg>