<svg class="svg-icon" style="width: 1em; height: 1em;vertical-align: middle;fill: currentColor;overflow: hidden;" viewBox="0 0 1024 1024" version="1.1" xmlns="http://www.w3.org/2000/svg"><path d="M866.558227 298.665173h-118.555851c2.190211-14.108374 3.327983-28.387414 3.384872-42.666453 0-141.368182-113.777209-255.99872-254.092952-255.99872-140.344187 0-254.121396 114.630538-254.121396 255.99872 0.056889 14.27904 1.194661 28.558079 3.413316 42.666453h-118.61274a107.604795 107.604795 0 0 0-16.497696 0 124.301601 124.301601 0 0 0-84.707132 49.066422A128.710468 128.710468 0 0 0 2.221216 443.731115l62.236133 469.330986c8.533291 63.942791 63.004129 111.501665 127.060698 110.932779h614.055596c64.056569 0.568886 118.527407-46.989987 127.060698-110.932779l62.264578-469.330986c0.39822-5.68886 0.39822-11.377721 0-17.066582a128.482913 128.482913 0 0 0-37.660256-90.964878 126.577145 126.577145 0 0 0-90.680436-37.034482zM497.294296 85.332907c93.55331 0 169.38582 76.401396 169.385819 170.665813a159.40187 159.40187 0 0 1-5.518194 42.666453H333.398226a159.40187 159.40187 0 0 1-5.518194-42.666453c0-94.264418 75.83251-170.665813 169.414264-170.665813z m411.190833 346.878265l-62.236134 469.330987A42.467343 42.467343 0 0 1 803.838541 938.661973H190.266498A42.467343 42.467343 0 0 1 147.912932 901.542159l-62.236134-469.330987a42.894008 42.894008 0 0 1 8.476402-31.573175c6.826633-9.159065 17.066581-15.160813 28.35897-16.639917h744.102946c11.207055 0 21.987446 4.4942 29.923406 12.515493 7.964405 7.964405 12.401716 18.830128 12.401716 30.15096 0 0-0.426665 3.839981-0.426665 5.546639z m-640.309688 104.959475c0 35.356268 28.444302 63.99968 63.516127 63.99968a63.772126 63.772126 0 0 0 63.516127-63.99968c0-35.356268-28.444302-63.99968-63.516127-63.99968a63.772126 63.772126 0 0 0-63.516127 63.99968z m352.766237 0c0 35.356268 28.444302 63.99968 63.516126 63.99968a63.772126 63.772126 0 0 0 63.544572-63.99968c0-35.356268-28.444302-63.99968-63.544572-63.99968a63.772126 63.772126 0 0 0-63.516126 63.99968z" fill="#000000" /></svg>